<?xml version="1.0" encoding="UTF-8" standalone="no"?>
<!DOCTYPE svg PUBLIC "-//W3C//DTD SVG 1.1//EN"
 "http://www.w3.org/Graphics/SVG/1.1/DTD/svg11.dtd">
<!-- Generated by graphviz version 12.2.1 (0)
 -->
<!-- Pages: 1 -->
<svg width="674pt" height="332pt"
 viewBox="0.00 0.00 674.00 332.00" xmlns="http://www.w3.org/2000/svg" xmlns:xlink="http://www.w3.org/1999/xlink">
<g id="graph0" class="graph" transform="scale(1 1) rotate(0) translate(4 328)">
<polygon fill="white" stroke="none" points="-4,4 -4,-328 670,-328 670,4 -4,4"/>
<!-- 1 -->
<g id="node1" class="node">
<title>1</title>
<ellipse fill="#00ff00" stroke="black" cx="459" cy="-306" rx="27" ry="18"/>
<text text-anchor="middle" x="459" y="-300.95" font-family="Times,serif" font-size="14.00">1</text>
</g>
<!-- 2 -->
<g id="node2" class="node">
<title>2</title>
<ellipse fill="#837b00" stroke="black" cx="459" cy="-234" rx="27" ry="18"/>
<text text-anchor="middle" x="459" y="-228.95" font-family="Times,serif" font-size="14.00">2</text>
</g>
<!-- 1&#45;&gt;2 -->
<g id="edge1" class="edge">
<title>1&#45;&gt;2</title>
<path fill="none" stroke="black" d="M459,-287.7C459,-280.41 459,-271.73 459,-263.54"/>
<polygon fill="black" stroke="black" points="462.5,-263.62 459,-253.62 455.5,-263.62 462.5,-263.62"/>
</g>
<!-- 3 -->
<g id="node3" class="node">
<title>3</title>
<ellipse fill="#837b00" stroke="black" cx="207" cy="-162" rx="27" ry="18"/>
<text text-anchor="middle" x="207" y="-156.95" font-family="Times,serif" font-size="14.00">3</text>
</g>
<!-- 2&#45;&gt;3 -->
<g id="edge2" class="edge">
<title>2&#45;&gt;3</title>
<path fill="none" stroke="black" d="M434.38,-226.16C389.59,-213.72 294.63,-187.34 242.72,-172.92"/>
<polygon fill="black" stroke="black" points="243.75,-169.58 233.18,-170.27 241.88,-176.32 243.75,-169.58"/>
</g>
<!-- 4 -->
<g id="node12" class="node">
<title>4</title>
<ellipse fill="#837b00" stroke="black" cx="459" cy="-162" rx="27" ry="18"/>
<text text-anchor="middle" x="459" y="-156.95" font-family="Times,serif" font-size="14.00">4</text>
</g>
<!-- 2&#45;&gt;4 -->
<g id="edge11" class="edge">
<title>2&#45;&gt;4</title>
<path fill="none" stroke="black" d="M459,-215.7C459,-208.41 459,-199.73 459,-191.54"/>
<polygon fill="black" stroke="black" points="462.5,-191.62 459,-181.62 455.5,-191.62 462.5,-191.62"/>
</g>
<!-- 5 -->
<g id="node17" class="node">
<title>5</title>
<ellipse fill="#837b00" stroke="black" cx="567" cy="-162" rx="27" ry="18"/>
<text text-anchor="middle" x="567" y="-156.95" font-family="Times,serif" font-size="14.00">5</text>
</g>
<!-- 2&#45;&gt;5 -->
<g id="edge16" class="edge">
<title>2&#45;&gt;5</title>
<path fill="none" stroke="black" d="M477.81,-220.81C494.59,-209.93 519.39,-193.86 538.59,-181.42"/>
<polygon fill="black" stroke="black" points="540.28,-184.49 546.77,-176.11 536.48,-178.61 540.28,-184.49"/>
</g>
<!-- 6 -->
<g id="node4" class="node">
<title>6</title>
<ellipse fill="#7c8200" stroke="black" cx="63" cy="-90" rx="27" ry="18"/>
<text text-anchor="middle" x="63" y="-84.95" font-family="Times,serif" font-size="14.00">6</text>
</g>
<!-- 3&#45;&gt;6 -->
<g id="edge3" class="edge">
<title>3&#45;&gt;6</title>
<path fill="none" stroke="black" d="M185.44,-150.52C161.34,-138.8 122.08,-119.72 94.53,-106.32"/>
<polygon fill="black" stroke="black" points="96.12,-103.21 85.6,-101.98 93.06,-109.5 96.12,-103.21"/>
</g>
<!-- 7 -->
<g id="node6" class="node">
<title>7</title>
<ellipse fill="#ac5200" stroke="black" cx="171" cy="-90" rx="27" ry="18"/>
<text text-anchor="middle" x="171" y="-84.95" font-family="Times,serif" font-size="14.00">7</text>
</g>
<!-- 3&#45;&gt;7 -->
<g id="edge5" class="edge">
<title>3&#45;&gt;7</title>
<path fill="none" stroke="black" d="M198.65,-144.76C194.42,-136.55 189.19,-126.37 184.42,-117.09"/>
<polygon fill="black" stroke="black" points="187.68,-115.79 180,-108.49 181.46,-118.99 187.68,-115.79"/>
</g>
<!-- 8 -->
<g id="node9" class="node">
<title>8</title>
<ellipse fill="#837b00" stroke="black" cx="243" cy="-90" rx="27" ry="18"/>
<text text-anchor="middle" x="243" y="-84.95" font-family="Times,serif" font-size="14.00">8</text>
</g>
<!-- 3&#45;&gt;8 -->
<g id="edge8" class="edge">
<title>3&#45;&gt;8</title>
<path fill="none" stroke="black" d="M215.35,-144.76C219.58,-136.55 224.81,-126.37 229.58,-117.09"/>
<polygon fill="black" stroke="black" points="232.54,-118.99 234,-108.49 226.32,-115.79 232.54,-118.99"/>
</g>
<!-- 12 -->
<g id="node5" class="node">
<title>12</title>
<ellipse fill="#dd2100" stroke="black" cx="27" cy="-18" rx="27" ry="18"/>
<text text-anchor="middle" x="27" y="-12.95" font-family="Times,serif" font-size="14.00">12</text>
</g>
<!-- 6&#45;&gt;12 -->
<g id="edge4" class="edge">
<title>6&#45;&gt;12</title>
<path fill="none" stroke="black" d="M54.65,-72.76C50.42,-64.55 45.19,-54.37 40.42,-45.09"/>
<polygon fill="black" stroke="black" points="43.68,-43.79 36,-36.49 37.46,-46.99 43.68,-43.79"/>
</g>
<!-- 13 -->
<g id="node7" class="node">
<title>13</title>
<ellipse fill="#ed1200" stroke="black" cx="99" cy="-18" rx="27" ry="18"/>
<text text-anchor="middle" x="99" y="-12.95" font-family="Times,serif" font-size="14.00">13</text>
</g>
<!-- 7&#45;&gt;13 -->
<g id="edge6" class="edge">
<title>7&#45;&gt;13</title>
<path fill="none" stroke="black" d="M156.08,-74.5C146.23,-64.92 133.14,-52.19 121.97,-41.34"/>
<polygon fill="black" stroke="black" points="124.59,-39 114.98,-34.54 119.71,-44.02 124.59,-39"/>
</g>
<!-- 14 -->
<g id="node8" class="node">
<title>14</title>
<ellipse fill="#ff0000" stroke="black" cx="171" cy="-18" rx="27" ry="18"/>
<text text-anchor="middle" x="171" y="-12.95" font-family="Times,serif" font-size="14.00">14</text>
</g>
<!-- 7&#45;&gt;14 -->
<g id="edge7" class="edge">
<title>7&#45;&gt;14</title>
<path fill="none" stroke="black" d="M171,-71.7C171,-64.41 171,-55.73 171,-47.54"/>
<polygon fill="black" stroke="black" points="174.5,-47.62 171,-37.62 167.5,-47.62 174.5,-47.62"/>
</g>
<!-- 15 -->
<g id="node10" class="node">
<title>15</title>
<ellipse fill="#847a00" stroke="black" cx="243" cy="-18" rx="27" ry="18"/>
<text text-anchor="middle" x="243" y="-12.95" font-family="Times,serif" font-size="14.00">15</text>
</g>
<!-- 8&#45;&gt;15 -->
<g id="edge9" class="edge">
<title>8&#45;&gt;15</title>
<path fill="none" stroke="black" d="M243,-71.7C243,-64.41 243,-55.73 243,-47.54"/>
<polygon fill="black" stroke="black" points="246.5,-47.62 243,-37.62 239.5,-47.62 246.5,-47.62"/>
</g>
<!-- 16 -->
<g id="node11" class="node">
<title>16</title>
<ellipse fill="#837b00" stroke="black" cx="315" cy="-18" rx="27" ry="18"/>
<text text-anchor="middle" x="315" y="-12.95" font-family="Times,serif" font-size="14.00">16</text>
</g>
<!-- 8&#45;&gt;16 -->
<g id="edge10" class="edge">
<title>8&#45;&gt;16</title>
<path fill="none" stroke="black" d="M257.92,-74.5C267.77,-64.92 280.86,-52.19 292.03,-41.34"/>
<polygon fill="black" stroke="black" points="294.29,-44.02 299.02,-34.54 289.41,-39 294.29,-44.02"/>
</g>
<!-- 9 -->
<g id="node13" class="node">
<title>9</title>
<ellipse fill="#837b00" stroke="black" cx="459" cy="-90" rx="27" ry="18"/>
<text text-anchor="middle" x="459" y="-84.95" font-family="Times,serif" font-size="14.00">9</text>
</g>
<!-- 4&#45;&gt;9 -->
<g id="edge12" class="edge">
<title>4&#45;&gt;9</title>
<path fill="none" stroke="black" d="M459,-143.7C459,-136.41 459,-127.73 459,-119.54"/>
<polygon fill="black" stroke="black" points="462.5,-119.62 459,-109.62 455.5,-119.62 462.5,-119.62"/>
</g>
<!-- 17 -->
<g id="node14" class="node">
<title>17</title>
<ellipse fill="#837b00" stroke="black" cx="387" cy="-18" rx="27" ry="18"/>
<text text-anchor="middle" x="387" y="-12.95" font-family="Times,serif" font-size="14.00">17</text>
</g>
<!-- 9&#45;&gt;17 -->
<g id="edge13" class="edge">
<title>9&#45;&gt;17</title>
<path fill="none" stroke="black" d="M444.08,-74.5C434.23,-64.92 421.14,-52.19 409.97,-41.34"/>
<polygon fill="black" stroke="black" points="412.59,-39 402.98,-34.54 407.71,-44.02 412.59,-39"/>
</g>
<!-- 18 -->
<g id="node15" class="node">
<title>18</title>
<ellipse fill="#847a00" stroke="black" cx="459" cy="-18" rx="27" ry="18"/>
<text text-anchor="middle" x="459" y="-12.95" font-family="Times,serif" font-size="14.00">18</text>
</g>
<!-- 9&#45;&gt;18 -->
<g id="edge14" class="edge">
<title>9&#45;&gt;18</title>
<path fill="none" stroke="black" d="M459,-71.7C459,-64.41 459,-55.73 459,-47.54"/>
<polygon fill="black" stroke="black" points="462.5,-47.62 459,-37.62 455.5,-47.62 462.5,-47.62"/>
</g>
<!-- 19 -->
<g id="node16" class="node">
<title>19</title>
<ellipse fill="#837b00" stroke="black" cx="531" cy="-18" rx="27" ry="18"/>
<text text-anchor="middle" x="531" y="-12.95" font-family="Times,serif" font-size="14.00">19</text>
</g>
<!-- 9&#45;&gt;19 -->
<g id="edge15" class="edge">
<title>9&#45;&gt;19</title>
<path fill="none" stroke="black" d="M473.92,-74.5C483.77,-64.92 496.86,-52.19 508.03,-41.34"/>
<polygon fill="black" stroke="black" points="510.29,-44.02 515.02,-34.54 505.41,-39 510.29,-44.02"/>
</g>
<!-- 10 -->
<g id="node18" class="node">
<title>10</title>
<ellipse fill="#837b00" stroke="black" cx="567" cy="-90" rx="27" ry="18"/>
<text text-anchor="middle" x="567" y="-84.95" font-family="Times,serif" font-size="14.00">10</text>
</g>
<!-- 5&#45;&gt;10 -->
<g id="edge17" class="edge">
<title>5&#45;&gt;10</title>
<path fill="none" stroke="black" d="M567,-143.7C567,-136.41 567,-127.73 567,-119.54"/>
<polygon fill="black" stroke="black" points="570.5,-119.62 567,-109.62 563.5,-119.62 570.5,-119.62"/>
</g>
<!-- 11 -->
<g id="node20" class="node">
<title>11</title>
<ellipse fill="#847a00" stroke="black" cx="639" cy="-90" rx="27" ry="18"/>
<text text-anchor="middle" x="639" y="-84.95" font-family="Times,serif" font-size="14.00">11</text>
</g>
<!-- 5&#45;&gt;11 -->
<g id="edge19" class="edge">
<title>5&#45;&gt;11</title>
<path fill="none" stroke="black" d="M581.92,-146.5C591.77,-136.92 604.86,-124.19 616.03,-113.34"/>
<polygon fill="black" stroke="black" points="618.29,-116.02 623.02,-106.54 613.41,-111 618.29,-116.02"/>
</g>
<!-- 20 -->
<g id="node19" class="node">
<title>20</title>
<ellipse fill="#837b00" stroke="black" cx="603" cy="-18" rx="27" ry="18"/>
<text text-anchor="middle" x="603" y="-12.95" font-family="Times,serif" font-size="14.00">20</text>
</g>
<!-- 10&#45;&gt;20 -->
<g id="edge18" class="edge">
<title>10&#45;&gt;20</title>
<path fill="none" stroke="black" d="M575.35,-72.76C579.58,-64.55 584.81,-54.37 589.58,-45.09"/>
<polygon fill="black" stroke="black" points="592.54,-46.99 594,-36.49 586.32,-43.79 592.54,-46.99"/>
</g>
</g>
</svg>
