<?xml version="1.0" encoding="UTF-8" standalone="no"?>
<!DOCTYPE svg PUBLIC "-//W3C//DTD SVG 1.1//EN"
 "http://www.w3.org/Graphics/SVG/1.1/DTD/svg11.dtd">
<!-- Generated by graphviz version 12.2.1 (0)
 -->
<!-- Pages: 1 -->
<svg width="566pt" height="188pt"
 viewBox="0.00 0.00 566.00 188.00" xmlns="http://www.w3.org/2000/svg" xmlns:xlink="http://www.w3.org/1999/xlink">
<g id="graph0" class="graph" transform="scale(1 1) rotate(0) translate(4 184)">
<polygon fill="white" stroke="none" points="-4,4 -4,-184 562,-184 562,4 -4,4"/>
<!-- 1 -->
<g id="node1" class="node">
<title>1</title>
<ellipse fill="#00ff00" stroke="black" cx="315" cy="-162" rx="27" ry="18"/>
<text text-anchor="middle" x="315" y="-156.95" font-family="Times,serif" font-size="14.00">1</text>
</g>
<!-- 2 -->
<g id="node2" class="node">
<title>2</title>
<ellipse fill="#c03e00" stroke="black" cx="135" cy="-90" rx="27" ry="18"/>
<text text-anchor="middle" x="135" y="-84.95" font-family="Times,serif" font-size="14.00">2</text>
</g>
<!-- 1&#45;&gt;2 -->
<g id="edge1" class="edge">
<title>1&#45;&gt;2</title>
<path fill="none" stroke="black" d="M292.2,-152.13C260.91,-139.97 204.44,-118 168.38,-103.98"/>
<polygon fill="black" stroke="black" points="169.89,-100.81 159.31,-100.45 167.36,-107.34 169.89,-100.81"/>
</g>
<!-- 3 -->
<g id="node6" class="node">
<title>3</title>
<ellipse fill="#c03e00" stroke="black" cx="315" cy="-90" rx="27" ry="18"/>
<text text-anchor="middle" x="315" y="-84.95" font-family="Times,serif" font-size="14.00">3</text>
</g>
<!-- 1&#45;&gt;3 -->
<g id="edge5" class="edge">
<title>1&#45;&gt;3</title>
<path fill="none" stroke="black" d="M315,-143.7C315,-136.41 315,-127.73 315,-119.54"/>
<polygon fill="black" stroke="black" points="318.5,-119.62 315,-109.62 311.5,-119.62 318.5,-119.62"/>
</g>
<!-- 4 -->
<g id="node10" class="node">
<title>4</title>
<ellipse fill="#c03e00" stroke="black" cx="459" cy="-90" rx="27" ry="18"/>
<text text-anchor="middle" x="459" y="-84.95" font-family="Times,serif" font-size="14.00">4</text>
</g>
<!-- 1&#45;&gt;4 -->
<g id="edge9" class="edge">
<title>1&#45;&gt;4</title>
<path fill="none" stroke="black" d="M336.56,-150.52C360.66,-138.8 399.92,-119.72 427.47,-106.32"/>
<polygon fill="black" stroke="black" points="428.94,-109.5 436.4,-101.98 425.88,-103.21 428.94,-109.5"/>
</g>
<!-- 5 -->
<g id="node3" class="node">
<title>5</title>
<ellipse fill="#c93500" stroke="black" cx="27" cy="-18" rx="27" ry="18"/>
<text text-anchor="middle" x="27" y="-12.95" font-family="Times,serif" font-size="14.00">5</text>
</g>
<!-- 2&#45;&gt;5 -->
<g id="edge2" class="edge">
<title>2&#45;&gt;5</title>
<path fill="none" stroke="black" d="M116.19,-76.81C99.41,-65.93 74.61,-49.86 55.41,-37.42"/>
<polygon fill="black" stroke="black" points="57.52,-34.61 47.23,-32.11 53.72,-40.49 57.52,-34.61"/>
</g>
<!-- 6 -->
<g id="node4" class="node">
<title>6</title>
<ellipse fill="#cf2f00" stroke="black" cx="99" cy="-18" rx="27" ry="18"/>
<text text-anchor="middle" x="99" y="-12.95" font-family="Times,serif" font-size="14.00">6</text>
</g>
<!-- 2&#45;&gt;6 -->
<g id="edge3" class="edge">
<title>2&#45;&gt;6</title>
<path fill="none" stroke="black" d="M126.65,-72.76C122.42,-64.55 117.19,-54.37 112.42,-45.09"/>
<polygon fill="black" stroke="black" points="115.68,-43.79 108,-36.49 109.46,-46.99 115.68,-43.79"/>
</g>
<!-- 7 -->
<g id="node5" class="node">
<title>7</title>
<ellipse fill="#c03e00" stroke="black" cx="171" cy="-18" rx="27" ry="18"/>
<text text-anchor="middle" x="171" y="-12.95" font-family="Times,serif" font-size="14.00">7</text>
</g>
<!-- 2&#45;&gt;7 -->
<g id="edge4" class="edge">
<title>2&#45;&gt;7</title>
<path fill="none" stroke="black" d="M143.35,-72.76C147.58,-64.55 152.81,-54.37 157.58,-45.09"/>
<polygon fill="black" stroke="black" points="160.54,-46.99 162,-36.49 154.32,-43.79 160.54,-46.99"/>
</g>
<!-- 8 -->
<g id="node7" class="node">
<title>8</title>
<ellipse fill="#be4000" stroke="black" cx="243" cy="-18" rx="27" ry="18"/>
<text text-anchor="middle" x="243" y="-12.95" font-family="Times,serif" font-size="14.00">8</text>
</g>
<!-- 3&#45;&gt;8 -->
<g id="edge6" class="edge">
<title>3&#45;&gt;8</title>
<path fill="none" stroke="black" d="M300.08,-74.5C290.23,-64.92 277.14,-52.19 265.97,-41.34"/>
<polygon fill="black" stroke="black" points="268.59,-39 258.98,-34.54 263.71,-44.02 268.59,-39"/>
</g>
<!-- 9 -->
<g id="node8" class="node">
<title>9</title>
<ellipse fill="#c03e00" stroke="black" cx="315" cy="-18" rx="27" ry="18"/>
<text text-anchor="middle" x="315" y="-12.95" font-family="Times,serif" font-size="14.00">9</text>
</g>
<!-- 3&#45;&gt;9 -->
<g id="edge7" class="edge">
<title>3&#45;&gt;9</title>
<path fill="none" stroke="black" d="M315,-71.7C315,-64.41 315,-55.73 315,-47.54"/>
<polygon fill="black" stroke="black" points="318.5,-47.62 315,-37.62 311.5,-47.62 318.5,-47.62"/>
</g>
<!-- 10 -->
<g id="node9" class="node">
<title>10</title>
<ellipse fill="#c43a00" stroke="black" cx="387" cy="-18" rx="27" ry="18"/>
<text text-anchor="middle" x="387" y="-12.95" font-family="Times,serif" font-size="14.00">10</text>
</g>
<!-- 3&#45;&gt;10 -->
<g id="edge8" class="edge">
<title>3&#45;&gt;10</title>
<path fill="none" stroke="black" d="M329.92,-74.5C339.77,-64.92 352.86,-52.19 364.03,-41.34"/>
<polygon fill="black" stroke="black" points="366.29,-44.02 371.02,-34.54 361.41,-39 366.29,-44.02"/>
</g>
<!-- 11 -->
<g id="node11" class="node">
<title>11</title>
<ellipse fill="#c23c00" stroke="black" cx="459" cy="-18" rx="27" ry="18"/>
<text text-anchor="middle" x="459" y="-12.95" font-family="Times,serif" font-size="14.00">11</text>
</g>
<!-- 4&#45;&gt;11 -->
<g id="edge10" class="edge">
<title>4&#45;&gt;11</title>
<path fill="none" stroke="black" d="M459,-71.7C459,-64.41 459,-55.73 459,-47.54"/>
<polygon fill="black" stroke="black" points="462.5,-47.62 459,-37.62 455.5,-47.62 462.5,-47.62"/>
</g>
<!-- 12 -->
<g id="node12" class="node">
<title>12</title>
<ellipse fill="#d72700" stroke="black" cx="531" cy="-18" rx="27" ry="18"/>
<text text-anchor="middle" x="531" y="-12.95" font-family="Times,serif" font-size="14.00">12</text>
</g>
<!-- 4&#45;&gt;12 -->
<g id="edge11" class="edge">
<title>4&#45;&gt;12</title>
<path fill="none" stroke="black" d="M473.92,-74.5C483.77,-64.92 496.86,-52.19 508.03,-41.34"/>
<polygon fill="black" stroke="black" points="510.29,-44.02 515.02,-34.54 505.41,-39 510.29,-44.02"/>
</g>
</g>
</svg>
