<?xml version="1.0" encoding="UTF-8" standalone="no"?>
<!DOCTYPE svg PUBLIC "-//W3C//DTD SVG 1.1//EN"
 "http://www.w3.org/Graphics/SVG/1.1/DTD/svg11.dtd">
<!-- Generated by graphviz version 12.2.1 (0)
 -->
<!-- Pages: 1 -->
<svg width="422pt" height="260pt"
 viewBox="0.00 0.00 422.00 260.00" xmlns="http://www.w3.org/2000/svg" xmlns:xlink="http://www.w3.org/1999/xlink">
<g id="graph0" class="graph" transform="scale(1 1) rotate(0) translate(4 256)">
<polygon fill="white" stroke="none" points="-4,4 -4,-256 418,-256 418,4 -4,4"/>
<!-- 1 -->
<g id="node1" class="node">
<title>1</title>
<ellipse fill="#00ff00" stroke="black" cx="171" cy="-234" rx="27" ry="18"/>
<text text-anchor="middle" x="171" y="-228.95" font-family="Times,serif" font-size="14.00">1</text>
</g>
<!-- 2 -->
<g id="node2" class="node">
<title>2</title>
<ellipse fill="#ff0000" stroke="black" cx="135" cy="-162" rx="27" ry="18"/>
<text text-anchor="middle" x="135" y="-156.95" font-family="Times,serif" font-size="14.00">2</text>
</g>
<!-- 1&#45;&gt;2 -->
<g id="edge1" class="edge">
<title>1&#45;&gt;2</title>
<path fill="none" stroke="black" d="M162.65,-216.76C158.42,-208.55 153.19,-198.37 148.42,-189.09"/>
<polygon fill="black" stroke="black" points="151.68,-187.79 144,-180.49 145.46,-190.99 151.68,-187.79"/>
</g>
<!-- 3 -->
<g id="node6" class="node">
<title>3</title>
<ellipse fill="#e81600" stroke="black" cx="243" cy="-162" rx="27" ry="18"/>
<text text-anchor="middle" x="243" y="-156.95" font-family="Times,serif" font-size="14.00">3</text>
</g>
<!-- 1&#45;&gt;3 -->
<g id="edge5" class="edge">
<title>1&#45;&gt;3</title>
<path fill="none" stroke="black" d="M185.92,-218.5C195.77,-208.92 208.86,-196.19 220.03,-185.34"/>
<polygon fill="black" stroke="black" points="222.29,-188.02 227.02,-178.54 217.41,-183 222.29,-188.02"/>
</g>
<!-- 4 -->
<g id="node3" class="node">
<title>4</title>
<ellipse fill="#ff0000" stroke="black" cx="99" cy="-90" rx="27" ry="18"/>
<text text-anchor="middle" x="99" y="-84.95" font-family="Times,serif" font-size="14.00">4</text>
</g>
<!-- 2&#45;&gt;4 -->
<g id="edge2" class="edge">
<title>2&#45;&gt;4</title>
<path fill="none" stroke="black" d="M126.65,-144.76C122.42,-136.55 117.19,-126.37 112.42,-117.09"/>
<polygon fill="black" stroke="black" points="115.68,-115.79 108,-108.49 109.46,-118.99 115.68,-115.79"/>
</g>
<!-- 7 -->
<g id="node4" class="node">
<title>7</title>
<ellipse fill="#ff0000" stroke="black" cx="27" cy="-18" rx="27" ry="18"/>
<text text-anchor="middle" x="27" y="-12.95" font-family="Times,serif" font-size="14.00">7</text>
</g>
<!-- 4&#45;&gt;7 -->
<g id="edge3" class="edge">
<title>4&#45;&gt;7</title>
<path fill="none" stroke="black" d="M84.08,-74.5C74.23,-64.92 61.14,-52.19 49.97,-41.34"/>
<polygon fill="black" stroke="black" points="52.59,-39 42.98,-34.54 47.71,-44.02 52.59,-39"/>
</g>
<!-- 8 -->
<g id="node5" class="node">
<title>8</title>
<ellipse fill="#ff0000" stroke="black" cx="99" cy="-18" rx="27" ry="18"/>
<text text-anchor="middle" x="99" y="-12.95" font-family="Times,serif" font-size="14.00">8</text>
</g>
<!-- 4&#45;&gt;8 -->
<g id="edge4" class="edge">
<title>4&#45;&gt;8</title>
<path fill="none" stroke="black" d="M99,-71.7C99,-64.41 99,-55.73 99,-47.54"/>
<polygon fill="black" stroke="black" points="102.5,-47.62 99,-37.62 95.5,-47.62 102.5,-47.62"/>
</g>
<!-- 5 -->
<g id="node7" class="node">
<title>5</title>
<ellipse fill="#dc2200" stroke="black" cx="243" cy="-90" rx="27" ry="18"/>
<text text-anchor="middle" x="243" y="-84.95" font-family="Times,serif" font-size="14.00">5</text>
</g>
<!-- 3&#45;&gt;5 -->
<g id="edge6" class="edge">
<title>3&#45;&gt;5</title>
<path fill="none" stroke="black" d="M243,-143.7C243,-136.41 243,-127.73 243,-119.54"/>
<polygon fill="black" stroke="black" points="246.5,-119.62 243,-109.62 239.5,-119.62 246.5,-119.62"/>
</g>
<!-- 6 -->
<g id="node11" class="node">
<title>6</title>
<ellipse fill="#ff0000" stroke="black" cx="351" cy="-90" rx="27" ry="18"/>
<text text-anchor="middle" x="351" y="-84.95" font-family="Times,serif" font-size="14.00">6</text>
</g>
<!-- 3&#45;&gt;6 -->
<g id="edge10" class="edge">
<title>3&#45;&gt;6</title>
<path fill="none" stroke="black" d="M261.81,-148.81C278.59,-137.93 303.39,-121.86 322.59,-109.42"/>
<polygon fill="black" stroke="black" points="324.28,-112.49 330.77,-104.11 320.48,-106.61 324.28,-112.49"/>
</g>
<!-- 9 -->
<g id="node8" class="node">
<title>9</title>
<ellipse fill="#d72700" stroke="black" cx="171" cy="-18" rx="27" ry="18"/>
<text text-anchor="middle" x="171" y="-12.95" font-family="Times,serif" font-size="14.00">9</text>
</g>
<!-- 5&#45;&gt;9 -->
<g id="edge7" class="edge">
<title>5&#45;&gt;9</title>
<path fill="none" stroke="black" d="M228.08,-74.5C218.23,-64.92 205.14,-52.19 193.97,-41.34"/>
<polygon fill="black" stroke="black" points="196.59,-39 186.98,-34.54 191.71,-44.02 196.59,-39"/>
</g>
<!-- 10 -->
<g id="node9" class="node">
<title>10</title>
<ellipse fill="#e51900" stroke="black" cx="243" cy="-18" rx="27" ry="18"/>
<text text-anchor="middle" x="243" y="-12.95" font-family="Times,serif" font-size="14.00">10</text>
</g>
<!-- 5&#45;&gt;10 -->
<g id="edge8" class="edge">
<title>5&#45;&gt;10</title>
<path fill="none" stroke="black" d="M243,-71.7C243,-64.41 243,-55.73 243,-47.54"/>
<polygon fill="black" stroke="black" points="246.5,-47.62 243,-37.62 239.5,-47.62 246.5,-47.62"/>
</g>
<!-- 11 -->
<g id="node10" class="node">
<title>11</title>
<ellipse fill="#d02e00" stroke="black" cx="315" cy="-18" rx="27" ry="18"/>
<text text-anchor="middle" x="315" y="-12.95" font-family="Times,serif" font-size="14.00">11</text>
</g>
<!-- 5&#45;&gt;11 -->
<g id="edge9" class="edge">
<title>5&#45;&gt;11</title>
<path fill="none" stroke="black" d="M257.92,-74.5C267.77,-64.92 280.86,-52.19 292.03,-41.34"/>
<polygon fill="black" stroke="black" points="294.29,-44.02 299.02,-34.54 289.41,-39 294.29,-44.02"/>
</g>
<!-- 12 -->
<g id="node12" class="node">
<title>12</title>
<ellipse fill="#ff0000" stroke="black" cx="387" cy="-18" rx="27" ry="18"/>
<text text-anchor="middle" x="387" y="-12.95" font-family="Times,serif" font-size="14.00">12</text>
</g>
<!-- 6&#45;&gt;12 -->
<g id="edge11" class="edge">
<title>6&#45;&gt;12</title>
<path fill="none" stroke="black" d="M359.35,-72.76C363.58,-64.55 368.81,-54.37 373.58,-45.09"/>
<polygon fill="black" stroke="black" points="376.54,-46.99 378,-36.49 370.32,-43.79 376.54,-46.99"/>
</g>
</g>
</svg>
