<?xml version="1.0" encoding="UTF-8" standalone="no"?>
<!DOCTYPE svg PUBLIC "-//W3C//DTD SVG 1.1//EN"
 "http://www.w3.org/Graphics/SVG/1.1/DTD/svg11.dtd">
<!-- Generated by graphviz version 12.2.1 (0)
 -->
<!-- Pages: 1 -->
<svg width="638pt" height="476pt"
 viewBox="0.00 0.00 638.00 476.00" xmlns="http://www.w3.org/2000/svg" xmlns:xlink="http://www.w3.org/1999/xlink">
<g id="graph0" class="graph" transform="scale(1 1) rotate(0) translate(4 472)">
<polygon fill="white" stroke="none" points="-4,4 -4,-472 634,-472 634,4 -4,4"/>
<!-- 1 -->
<g id="node1" class="node">
<title>1</title>
<ellipse fill="#00ff00" stroke="black" cx="407" cy="-450" rx="27" ry="18"/>
<text text-anchor="middle" x="407" y="-444.95" font-family="Times,serif" font-size="14.00">1</text>
</g>
<!-- 2 -->
<g id="node2" class="node">
<title>2</title>
<ellipse fill="#8c7200" stroke="black" cx="407" cy="-378" rx="27" ry="18"/>
<text text-anchor="middle" x="407" y="-372.95" font-family="Times,serif" font-size="14.00">2</text>
</g>
<!-- 1&#45;&gt;2 -->
<g id="edge1" class="edge">
<title>1&#45;&gt;2</title>
<path fill="none" stroke="black" d="M407,-431.7C407,-424.41 407,-415.73 407,-407.54"/>
<polygon fill="black" stroke="black" points="410.5,-407.62 407,-397.62 403.5,-407.62 410.5,-407.62"/>
</g>
<!-- 3 -->
<g id="node3" class="node">
<title>3</title>
<ellipse fill="#ff0000" stroke="black" cx="371" cy="-306" rx="27" ry="18"/>
<text text-anchor="middle" x="371" y="-300.95" font-family="Times,serif" font-size="14.00">3</text>
</g>
<!-- 2&#45;&gt;3 -->
<g id="edge2" class="edge">
<title>2&#45;&gt;3</title>
<path fill="none" stroke="black" d="M398.65,-360.76C394.42,-352.55 389.19,-342.37 384.42,-333.09"/>
<polygon fill="black" stroke="black" points="387.68,-331.79 380,-324.49 381.46,-334.99 387.68,-331.79"/>
</g>
<!-- 4 -->
<g id="node16" class="node">
<title>4</title>
<ellipse fill="#ff0000" stroke="black" cx="497" cy="-306" rx="27" ry="18"/>
<text text-anchor="middle" x="497" y="-300.95" font-family="Times,serif" font-size="14.00">4</text>
</g>
<!-- 2&#45;&gt;4 -->
<g id="edge15" class="edge">
<title>2&#45;&gt;4</title>
<path fill="none" stroke="black" d="M423.93,-363.83C437.17,-353.54 455.81,-339.04 470.95,-327.26"/>
<polygon fill="black" stroke="black" points="472.9,-330.18 478.65,-321.27 468.6,-324.65 472.9,-330.18"/>
</g>
<!-- 5 -->
<g id="node4" class="node">
<title>5</title>
<ellipse fill="#ff0000" stroke="black" cx="263" cy="-234" rx="27" ry="18"/>
<text text-anchor="middle" x="263" y="-228.95" font-family="Times,serif" font-size="14.00">5</text>
</g>
<!-- 3&#45;&gt;5 -->
<g id="edge3" class="edge">
<title>3&#45;&gt;5</title>
<path fill="none" stroke="black" d="M352.19,-292.81C335.41,-281.93 310.61,-265.86 291.41,-253.42"/>
<polygon fill="black" stroke="black" points="293.52,-250.61 283.23,-248.11 289.72,-256.49 293.52,-250.61"/>
</g>
<!-- 7 -->
<g id="node5" class="node">
<title>7</title>
<ellipse fill="#ff0000" stroke="black" cx="99" cy="-162" rx="27" ry="18"/>
<text text-anchor="middle" x="99" y="-156.95" font-family="Times,serif" font-size="14.00">7</text>
</g>
<!-- 5&#45;&gt;7 -->
<g id="edge4" class="edge">
<title>5&#45;&gt;7</title>
<path fill="none" stroke="black" d="M240.54,-223.41C212.4,-211.4 163.97,-190.73 131.72,-176.96"/>
<polygon fill="black" stroke="black" points="133.41,-173.88 122.84,-173.18 130.67,-180.32 133.41,-173.88"/>
</g>
<!-- 8 -->
<g id="node9" class="node">
<title>8</title>
<ellipse fill="#ff0000" stroke="black" cx="250" cy="-162" rx="27" ry="18"/>
<text text-anchor="middle" x="250" y="-156.95" font-family="Times,serif" font-size="14.00">8</text>
</g>
<!-- 5&#45;&gt;8 -->
<g id="edge8" class="edge">
<title>5&#45;&gt;8</title>
<path fill="none" stroke="black" d="M259.79,-215.7C258.42,-208.32 256.78,-199.52 255.25,-191.25"/>
<polygon fill="black" stroke="black" points="258.72,-190.79 253.45,-181.59 251.84,-192.06 258.72,-190.79"/>
</g>
<!-- 9 -->
<g id="node13" class="node">
<title>9</title>
<ellipse fill="#ff0000" stroke="black" cx="387" cy="-162" rx="27" ry="18"/>
<text text-anchor="middle" x="387" y="-156.95" font-family="Times,serif" font-size="14.00">9</text>
</g>
<!-- 5&#45;&gt;9 -->
<g id="edge12" class="edge">
<title>5&#45;&gt;9</title>
<path fill="none" stroke="black" d="M283.2,-221.6C303.19,-210.31 334.05,-192.89 356.93,-179.98"/>
<polygon fill="black" stroke="black" points="358.5,-183.11 365.49,-175.14 355.06,-177.01 358.5,-183.11"/>
</g>
<!-- 11 -->
<g id="node6" class="node">
<title>11</title>
<ellipse fill="#ff0000" stroke="black" cx="27" cy="-90" rx="27" ry="18"/>
<text text-anchor="middle" x="27" y="-84.95" font-family="Times,serif" font-size="14.00">11</text>
</g>
<!-- 7&#45;&gt;11 -->
<g id="edge5" class="edge">
<title>7&#45;&gt;11</title>
<path fill="none" stroke="black" d="M84.08,-146.5C74.23,-136.92 61.14,-124.19 49.97,-113.34"/>
<polygon fill="black" stroke="black" points="52.59,-111 42.98,-106.54 47.71,-116.02 52.59,-111"/>
</g>
<!-- 12 -->
<g id="node8" class="node">
<title>12</title>
<ellipse fill="#ff0000" stroke="black" cx="99" cy="-90" rx="27" ry="18"/>
<text text-anchor="middle" x="99" y="-84.95" font-family="Times,serif" font-size="14.00">12</text>
</g>
<!-- 7&#45;&gt;12 -->
<g id="edge7" class="edge">
<title>7&#45;&gt;12</title>
<path fill="none" stroke="black" d="M99,-143.7C99,-136.41 99,-127.73 99,-119.54"/>
<polygon fill="black" stroke="black" points="102.5,-119.62 99,-109.62 95.5,-119.62 102.5,-119.62"/>
</g>
<!-- 20 -->
<g id="node7" class="node">
<title>20</title>
<ellipse fill="#ff0000" stroke="black" cx="27" cy="-18" rx="27" ry="18"/>
<text text-anchor="middle" x="27" y="-12.95" font-family="Times,serif" font-size="14.00">20</text>
</g>
<!-- 11&#45;&gt;20 -->
<g id="edge6" class="edge">
<title>11&#45;&gt;20</title>
<path fill="none" stroke="black" d="M27,-71.7C27,-64.41 27,-55.73 27,-47.54"/>
<polygon fill="black" stroke="black" points="30.5,-47.62 27,-37.62 23.5,-47.62 30.5,-47.62"/>
</g>
<!-- 13 -->
<g id="node10" class="node">
<title>13</title>
<ellipse fill="#ff0000" stroke="black" cx="171" cy="-90" rx="27" ry="18"/>
<text text-anchor="middle" x="171" y="-84.95" font-family="Times,serif" font-size="14.00">13</text>
</g>
<!-- 8&#45;&gt;13 -->
<g id="edge9" class="edge">
<title>8&#45;&gt;13</title>
<path fill="none" stroke="black" d="M234.39,-147.17C223.21,-137.26 207.94,-123.73 195.19,-112.43"/>
<polygon fill="black" stroke="black" points="197.78,-110.06 187.98,-106.04 193.14,-115.3 197.78,-110.06"/>
</g>
<!-- 14 -->
<g id="node11" class="node">
<title>14</title>
<ellipse fill="#ff0000" stroke="black" cx="243" cy="-90" rx="27" ry="18"/>
<text text-anchor="middle" x="243" y="-84.95" font-family="Times,serif" font-size="14.00">14</text>
</g>
<!-- 8&#45;&gt;14 -->
<g id="edge10" class="edge">
<title>8&#45;&gt;14</title>
<path fill="none" stroke="black" d="M248.27,-143.7C247.54,-136.41 246.67,-127.73 245.85,-119.54"/>
<polygon fill="black" stroke="black" points="249.34,-119.21 244.86,-109.61 242.37,-119.91 249.34,-119.21"/>
</g>
<!-- 15 -->
<g id="node12" class="node">
<title>15</title>
<ellipse fill="#ff0000" stroke="black" cx="315" cy="-90" rx="27" ry="18"/>
<text text-anchor="middle" x="315" y="-84.95" font-family="Times,serif" font-size="14.00">15</text>
</g>
<!-- 8&#45;&gt;15 -->
<g id="edge11" class="edge">
<title>8&#45;&gt;15</title>
<path fill="none" stroke="black" d="M263.78,-146.15C272.4,-136.87 283.68,-124.73 293.46,-114.19"/>
<polygon fill="black" stroke="black" points="295.97,-116.64 300.21,-106.93 290.84,-111.88 295.97,-116.64"/>
</g>
<!-- 16 -->
<g id="node14" class="node">
<title>16</title>
<ellipse fill="#ff0000" stroke="black" cx="387" cy="-90" rx="27" ry="18"/>
<text text-anchor="middle" x="387" y="-84.95" font-family="Times,serif" font-size="14.00">16</text>
</g>
<!-- 9&#45;&gt;16 -->
<g id="edge13" class="edge">
<title>9&#45;&gt;16</title>
<path fill="none" stroke="black" d="M387,-143.7C387,-136.41 387,-127.73 387,-119.54"/>
<polygon fill="black" stroke="black" points="390.5,-119.62 387,-109.62 383.5,-119.62 390.5,-119.62"/>
</g>
<!-- 17 -->
<g id="node15" class="node">
<title>17</title>
<ellipse fill="#ff0000" stroke="black" cx="459" cy="-90" rx="27" ry="18"/>
<text text-anchor="middle" x="459" y="-84.95" font-family="Times,serif" font-size="14.00">17</text>
</g>
<!-- 9&#45;&gt;17 -->
<g id="edge14" class="edge">
<title>9&#45;&gt;17</title>
<path fill="none" stroke="black" d="M401.92,-146.5C411.77,-136.92 424.86,-124.19 436.03,-113.34"/>
<polygon fill="black" stroke="black" points="438.29,-116.02 443.02,-106.54 433.41,-111 438.29,-116.02"/>
</g>
<!-- 6 -->
<g id="node17" class="node">
<title>6</title>
<ellipse fill="#ff0000" stroke="black" cx="524" cy="-234" rx="27" ry="18"/>
<text text-anchor="middle" x="524" y="-228.95" font-family="Times,serif" font-size="14.00">6</text>
</g>
<!-- 4&#45;&gt;6 -->
<g id="edge16" class="edge">
<title>4&#45;&gt;6</title>
<path fill="none" stroke="black" d="M503.54,-288.05C506.52,-280.32 510.13,-270.96 513.48,-262.27"/>
<polygon fill="black" stroke="black" points="516.65,-263.79 516.98,-253.2 510.12,-261.27 516.65,-263.79"/>
</g>
<!-- 10 -->
<g id="node18" class="node">
<title>10</title>
<ellipse fill="#ff0000" stroke="black" cx="531" cy="-162" rx="27" ry="18"/>
<text text-anchor="middle" x="531" y="-156.95" font-family="Times,serif" font-size="14.00">10</text>
</g>
<!-- 6&#45;&gt;10 -->
<g id="edge17" class="edge">
<title>6&#45;&gt;10</title>
<path fill="none" stroke="black" d="M525.73,-215.7C526.46,-208.41 527.33,-199.73 528.15,-191.54"/>
<polygon fill="black" stroke="black" points="531.63,-191.91 529.14,-181.61 524.66,-191.21 531.63,-191.91"/>
</g>
<!-- 18 -->
<g id="node19" class="node">
<title>18</title>
<ellipse fill="#ff0000" stroke="black" cx="531" cy="-90" rx="27" ry="18"/>
<text text-anchor="middle" x="531" y="-84.95" font-family="Times,serif" font-size="14.00">18</text>
</g>
<!-- 10&#45;&gt;18 -->
<g id="edge18" class="edge">
<title>10&#45;&gt;18</title>
<path fill="none" stroke="black" d="M531,-143.7C531,-136.41 531,-127.73 531,-119.54"/>
<polygon fill="black" stroke="black" points="534.5,-119.62 531,-109.62 527.5,-119.62 534.5,-119.62"/>
</g>
<!-- 19 -->
<g id="node20" class="node">
<title>19</title>
<ellipse fill="#ff0000" stroke="black" cx="603" cy="-90" rx="27" ry="18"/>
<text text-anchor="middle" x="603" y="-84.95" font-family="Times,serif" font-size="14.00">19</text>
</g>
<!-- 10&#45;&gt;19 -->
<g id="edge19" class="edge">
<title>10&#45;&gt;19</title>
<path fill="none" stroke="black" d="M545.92,-146.5C555.77,-136.92 568.86,-124.19 580.03,-113.34"/>
<polygon fill="black" stroke="black" points="582.29,-116.02 587.02,-106.54 577.41,-111 582.29,-116.02"/>
</g>
</g>
</svg>
