<?xml version="1.0" encoding="UTF-8" standalone="no"?>
<!DOCTYPE svg PUBLIC "-//W3C//DTD SVG 1.1//EN"
 "http://www.w3.org/Graphics/SVG/1.1/DTD/svg11.dtd">
<!-- Generated by graphviz version 12.2.1 (0)
 -->
<!-- Pages: 1 -->
<svg width="638pt" height="332pt"
 viewBox="0.00 0.00 638.00 332.00" xmlns="http://www.w3.org/2000/svg" xmlns:xlink="http://www.w3.org/1999/xlink">
<g id="graph0" class="graph" transform="scale(1 1) rotate(0) translate(4 328)">
<polygon fill="white" stroke="none" points="-4,4 -4,-328 634,-328 634,4 -4,4"/>
<!-- 1 -->
<g id="node1" class="node">
<title>1</title>
<ellipse fill="#00ff00" stroke="black" cx="351" cy="-306" rx="27" ry="18"/>
<text text-anchor="middle" x="351" y="-300.95" font-family="Times,serif" font-size="14.00">1</text>
</g>
<!-- 2 -->
<g id="node2" class="node">
<title>2</title>
<ellipse fill="#926c00" stroke="black" cx="315" cy="-234" rx="27" ry="18"/>
<text text-anchor="middle" x="315" y="-228.95" font-family="Times,serif" font-size="14.00">2</text>
</g>
<!-- 1&#45;&gt;2 -->
<g id="edge1" class="edge">
<title>1&#45;&gt;2</title>
<path fill="none" stroke="black" d="M342.65,-288.76C338.42,-280.55 333.19,-270.37 328.42,-261.09"/>
<polygon fill="black" stroke="black" points="331.68,-259.79 324,-252.49 325.46,-262.99 331.68,-259.79"/>
</g>
<!-- 3 -->
<g id="node17" class="node">
<title>3</title>
<ellipse fill="#926c00" stroke="black" cx="468" cy="-234" rx="27" ry="18"/>
<text text-anchor="middle" x="468" y="-228.95" font-family="Times,serif" font-size="14.00">3</text>
</g>
<!-- 1&#45;&gt;3 -->
<g id="edge16" class="edge">
<title>1&#45;&gt;3</title>
<path fill="none" stroke="black" d="M370.58,-293.28C389.14,-282.18 417.27,-265.35 438.54,-252.63"/>
<polygon fill="black" stroke="black" points="440.27,-255.67 447.05,-247.53 436.68,-249.66 440.27,-255.67"/>
</g>
<!-- 4 -->
<g id="node3" class="node">
<title>4</title>
<ellipse fill="#966800" stroke="black" cx="135" cy="-162" rx="27" ry="18"/>
<text text-anchor="middle" x="135" y="-156.95" font-family="Times,serif" font-size="14.00">4</text>
</g>
<!-- 2&#45;&gt;4 -->
<g id="edge2" class="edge">
<title>2&#45;&gt;4</title>
<path fill="none" stroke="black" d="M292.2,-224.13C260.91,-211.97 204.44,-190 168.38,-175.98"/>
<polygon fill="black" stroke="black" points="169.89,-172.81 159.31,-172.45 167.36,-179.34 169.89,-172.81"/>
</g>
<!-- 5 -->
<g id="node7" class="node">
<title>5</title>
<ellipse fill="#976700" stroke="black" cx="261" cy="-162" rx="27" ry="18"/>
<text text-anchor="middle" x="261" y="-156.95" font-family="Times,serif" font-size="14.00">5</text>
</g>
<!-- 2&#45;&gt;5 -->
<g id="edge6" class="edge">
<title>2&#45;&gt;5</title>
<path fill="none" stroke="black" d="M303.02,-217.46C296.23,-208.67 287.6,-197.48 279.92,-187.53"/>
<polygon fill="black" stroke="black" points="282.75,-185.47 273.88,-179.69 277.21,-189.75 282.75,-185.47"/>
</g>
<!-- 6 -->
<g id="node11" class="node">
<title>6</title>
<ellipse fill="#976700" stroke="black" cx="369" cy="-162" rx="27" ry="18"/>
<text text-anchor="middle" x="369" y="-156.95" font-family="Times,serif" font-size="14.00">6</text>
</g>
<!-- 2&#45;&gt;6 -->
<g id="edge10" class="edge">
<title>2&#45;&gt;6</title>
<path fill="none" stroke="black" d="M326.98,-217.46C333.77,-208.67 342.4,-197.48 350.08,-187.53"/>
<polygon fill="black" stroke="black" points="352.79,-189.75 356.12,-179.69 347.25,-185.47 352.79,-189.75"/>
</g>
<!-- 8 -->
<g id="node4" class="node">
<title>8</title>
<ellipse fill="#926c00" stroke="black" cx="99" cy="-90" rx="27" ry="18"/>
<text text-anchor="middle" x="99" y="-84.95" font-family="Times,serif" font-size="14.00">8</text>
</g>
<!-- 4&#45;&gt;8 -->
<g id="edge3" class="edge">
<title>4&#45;&gt;8</title>
<path fill="none" stroke="black" d="M126.65,-144.76C122.42,-136.55 117.19,-126.37 112.42,-117.09"/>
<polygon fill="black" stroke="black" points="115.68,-115.79 108,-108.49 109.46,-118.99 115.68,-115.79"/>
</g>
<!-- 15 -->
<g id="node5" class="node">
<title>15</title>
<ellipse fill="#926c00" stroke="black" cx="27" cy="-18" rx="27" ry="18"/>
<text text-anchor="middle" x="27" y="-12.95" font-family="Times,serif" font-size="14.00">15</text>
</g>
<!-- 8&#45;&gt;15 -->
<g id="edge4" class="edge">
<title>8&#45;&gt;15</title>
<path fill="none" stroke="black" d="M84.08,-74.5C74.23,-64.92 61.14,-52.19 49.97,-41.34"/>
<polygon fill="black" stroke="black" points="52.59,-39 42.98,-34.54 47.71,-44.02 52.59,-39"/>
</g>
<!-- 16 -->
<g id="node6" class="node">
<title>16</title>
<ellipse fill="#926c00" stroke="black" cx="99" cy="-18" rx="27" ry="18"/>
<text text-anchor="middle" x="99" y="-12.95" font-family="Times,serif" font-size="14.00">16</text>
</g>
<!-- 8&#45;&gt;16 -->
<g id="edge5" class="edge">
<title>8&#45;&gt;16</title>
<path fill="none" stroke="black" d="M99,-71.7C99,-64.41 99,-55.73 99,-47.54"/>
<polygon fill="black" stroke="black" points="102.5,-47.62 99,-37.62 95.5,-47.62 102.5,-47.62"/>
</g>
<!-- 9 -->
<g id="node8" class="node">
<title>9</title>
<ellipse fill="#926c00" stroke="black" cx="243" cy="-90" rx="27" ry="18"/>
<text text-anchor="middle" x="243" y="-84.95" font-family="Times,serif" font-size="14.00">9</text>
</g>
<!-- 5&#45;&gt;9 -->
<g id="edge7" class="edge">
<title>5&#45;&gt;9</title>
<path fill="none" stroke="black" d="M256.64,-144.05C254.7,-136.49 252.35,-127.37 250.16,-118.85"/>
<polygon fill="black" stroke="black" points="253.57,-118.07 247.69,-109.25 246.79,-119.81 253.57,-118.07"/>
</g>
<!-- 17 -->
<g id="node9" class="node">
<title>17</title>
<ellipse fill="#926c00" stroke="black" cx="171" cy="-18" rx="27" ry="18"/>
<text text-anchor="middle" x="171" y="-12.95" font-family="Times,serif" font-size="14.00">17</text>
</g>
<!-- 9&#45;&gt;17 -->
<g id="edge8" class="edge">
<title>9&#45;&gt;17</title>
<path fill="none" stroke="black" d="M228.08,-74.5C218.23,-64.92 205.14,-52.19 193.97,-41.34"/>
<polygon fill="black" stroke="black" points="196.59,-39 186.98,-34.54 191.71,-44.02 196.59,-39"/>
</g>
<!-- 18 -->
<g id="node10" class="node">
<title>18</title>
<ellipse fill="#916d00" stroke="black" cx="243" cy="-18" rx="27" ry="18"/>
<text text-anchor="middle" x="243" y="-12.95" font-family="Times,serif" font-size="14.00">18</text>
</g>
<!-- 9&#45;&gt;18 -->
<g id="edge9" class="edge">
<title>9&#45;&gt;18</title>
<path fill="none" stroke="black" d="M243,-71.7C243,-64.41 243,-55.73 243,-47.54"/>
<polygon fill="black" stroke="black" points="246.5,-47.62 243,-37.62 239.5,-47.62 246.5,-47.62"/>
</g>
<!-- 10 -->
<g id="node12" class="node">
<title>10</title>
<ellipse fill="#926c00" stroke="black" cx="315" cy="-90" rx="27" ry="18"/>
<text text-anchor="middle" x="315" y="-84.95" font-family="Times,serif" font-size="14.00">10</text>
</g>
<!-- 6&#45;&gt;10 -->
<g id="edge11" class="edge">
<title>6&#45;&gt;10</title>
<path fill="none" stroke="black" d="M357.02,-145.46C350.23,-136.67 341.6,-125.48 333.92,-115.53"/>
<polygon fill="black" stroke="black" points="336.75,-113.47 327.88,-107.69 331.21,-117.75 336.75,-113.47"/>
</g>
<!-- 11 -->
<g id="node15" class="node">
<title>11</title>
<ellipse fill="#926c00" stroke="black" cx="387" cy="-90" rx="27" ry="18"/>
<text text-anchor="middle" x="387" y="-84.95" font-family="Times,serif" font-size="14.00">11</text>
</g>
<!-- 6&#45;&gt;11 -->
<g id="edge14" class="edge">
<title>6&#45;&gt;11</title>
<path fill="none" stroke="black" d="M373.36,-144.05C375.3,-136.49 377.65,-127.37 379.84,-118.85"/>
<polygon fill="black" stroke="black" points="383.21,-119.81 382.31,-109.25 376.43,-118.07 383.21,-119.81"/>
</g>
<!-- 12 -->
<g id="node16" class="node">
<title>12</title>
<ellipse fill="#926c00" stroke="black" cx="459" cy="-90" rx="27" ry="18"/>
<text text-anchor="middle" x="459" y="-84.95" font-family="Times,serif" font-size="14.00">12</text>
</g>
<!-- 6&#45;&gt;12 -->
<g id="edge15" class="edge">
<title>6&#45;&gt;12</title>
<path fill="none" stroke="black" d="M385.93,-147.83C399.17,-137.54 417.81,-123.04 432.95,-111.26"/>
<polygon fill="black" stroke="black" points="434.9,-114.18 440.65,-105.27 430.6,-108.65 434.9,-114.18"/>
</g>
<!-- 19 -->
<g id="node13" class="node">
<title>19</title>
<ellipse fill="#926c00" stroke="black" cx="315" cy="-18" rx="27" ry="18"/>
<text text-anchor="middle" x="315" y="-12.95" font-family="Times,serif" font-size="14.00">19</text>
</g>
<!-- 10&#45;&gt;19 -->
<g id="edge12" class="edge">
<title>10&#45;&gt;19</title>
<path fill="none" stroke="black" d="M315,-71.7C315,-64.41 315,-55.73 315,-47.54"/>
<polygon fill="black" stroke="black" points="318.5,-47.62 315,-37.62 311.5,-47.62 318.5,-47.62"/>
</g>
<!-- 20 -->
<g id="node14" class="node">
<title>20</title>
<ellipse fill="#926c00" stroke="black" cx="387" cy="-18" rx="27" ry="18"/>
<text text-anchor="middle" x="387" y="-12.95" font-family="Times,serif" font-size="14.00">20</text>
</g>
<!-- 10&#45;&gt;20 -->
<g id="edge13" class="edge">
<title>10&#45;&gt;20</title>
<path fill="none" stroke="black" d="M329.92,-74.5C339.77,-64.92 352.86,-52.19 364.03,-41.34"/>
<polygon fill="black" stroke="black" points="366.29,-44.02 371.02,-34.54 361.41,-39 366.29,-44.02"/>
</g>
<!-- 7 -->
<g id="node18" class="node">
<title>7</title>
<ellipse fill="#887600" stroke="black" cx="531" cy="-162" rx="27" ry="18"/>
<text text-anchor="middle" x="531" y="-156.95" font-family="Times,serif" font-size="14.00">7</text>
</g>
<!-- 3&#45;&gt;7 -->
<g id="edge17" class="edge">
<title>3&#45;&gt;7</title>
<path fill="none" stroke="black" d="M481.36,-218.15C489.71,-208.87 500.65,-196.73 510.13,-186.19"/>
<polygon fill="black" stroke="black" points="512.56,-188.72 516.65,-178.95 507.35,-184.04 512.56,-188.72"/>
</g>
<!-- 13 -->
<g id="node19" class="node">
<title>13</title>
<ellipse fill="#926c00" stroke="black" cx="531" cy="-90" rx="27" ry="18"/>
<text text-anchor="middle" x="531" y="-84.95" font-family="Times,serif" font-size="14.00">13</text>
</g>
<!-- 7&#45;&gt;13 -->
<g id="edge18" class="edge">
<title>7&#45;&gt;13</title>
<path fill="none" stroke="black" d="M531,-143.7C531,-136.41 531,-127.73 531,-119.54"/>
<polygon fill="black" stroke="black" points="534.5,-119.62 531,-109.62 527.5,-119.62 534.5,-119.62"/>
</g>
<!-- 14 -->
<g id="node20" class="node">
<title>14</title>
<ellipse fill="#926c00" stroke="black" cx="603" cy="-90" rx="27" ry="18"/>
<text text-anchor="middle" x="603" y="-84.95" font-family="Times,serif" font-size="14.00">14</text>
</g>
<!-- 7&#45;&gt;14 -->
<g id="edge19" class="edge">
<title>7&#45;&gt;14</title>
<path fill="none" stroke="black" d="M545.92,-146.5C555.77,-136.92 568.86,-124.19 580.03,-113.34"/>
<polygon fill="black" stroke="black" points="582.29,-116.02 587.02,-106.54 577.41,-111 582.29,-116.02"/>
</g>
</g>
</svg>
