<?xml version="1.0" encoding="UTF-8" standalone="no"?>
<!DOCTYPE svg PUBLIC "-//W3C//DTD SVG 1.1//EN"
 "http://www.w3.org/Graphics/SVG/1.1/DTD/svg11.dtd">
<!-- Generated by graphviz version 12.2.1 (0)
 -->
<!-- Pages: 1 -->
<svg width="422pt" height="260pt"
 viewBox="0.00 0.00 422.00 260.00" xmlns="http://www.w3.org/2000/svg" xmlns:xlink="http://www.w3.org/1999/xlink">
<g id="graph0" class="graph" transform="scale(1 1) rotate(0) translate(4 256)">
<polygon fill="white" stroke="none" points="-4,4 -4,-256 418,-256 418,4 -4,4"/>
<!-- 1 -->
<g id="node1" class="node">
<title>1</title>
<ellipse fill="#00ff00" stroke="black" cx="243" cy="-234" rx="27" ry="18"/>
<text text-anchor="middle" x="243" y="-228.95" font-family="Times,serif" font-size="14.00">1</text>
</g>
<!-- 2 -->
<g id="node2" class="node">
<title>2</title>
<ellipse fill="#bc4200" stroke="black" cx="207" cy="-162" rx="27" ry="18"/>
<text text-anchor="middle" x="207" y="-156.95" font-family="Times,serif" font-size="14.00">2</text>
</g>
<!-- 1&#45;&gt;2 -->
<g id="edge1" class="edge">
<title>1&#45;&gt;2</title>
<path fill="none" stroke="black" d="M234.65,-216.76C230.42,-208.55 225.19,-198.37 220.42,-189.09"/>
<polygon fill="black" stroke="black" points="223.68,-187.79 216,-180.49 217.46,-190.99 223.68,-187.79"/>
</g>
<!-- 3 -->
<g id="node7" class="node">
<title>3</title>
<ellipse fill="#9f5f00" stroke="black" cx="279" cy="-162" rx="27" ry="18"/>
<text text-anchor="middle" x="279" y="-156.95" font-family="Times,serif" font-size="14.00">3</text>
</g>
<!-- 1&#45;&gt;3 -->
<g id="edge6" class="edge">
<title>1&#45;&gt;3</title>
<path fill="none" stroke="black" d="M251.35,-216.76C255.58,-208.55 260.81,-198.37 265.58,-189.09"/>
<polygon fill="black" stroke="black" points="268.54,-190.99 270,-180.49 262.32,-187.79 268.54,-190.99"/>
</g>
<!-- 4 -->
<g id="node3" class="node">
<title>4</title>
<ellipse fill="#c73700" stroke="black" cx="135" cy="-90" rx="27" ry="18"/>
<text text-anchor="middle" x="135" y="-84.95" font-family="Times,serif" font-size="14.00">4</text>
</g>
<!-- 2&#45;&gt;4 -->
<g id="edge2" class="edge">
<title>2&#45;&gt;4</title>
<path fill="none" stroke="black" d="M192.08,-146.5C182.23,-136.92 169.14,-124.19 157.97,-113.34"/>
<polygon fill="black" stroke="black" points="160.59,-111 150.98,-106.54 155.71,-116.02 160.59,-111"/>
</g>
<!-- 7 -->
<g id="node4" class="node">
<title>7</title>
<ellipse fill="#b14d00" stroke="black" cx="27" cy="-18" rx="27" ry="18"/>
<text text-anchor="middle" x="27" y="-12.95" font-family="Times,serif" font-size="14.00">7</text>
</g>
<!-- 4&#45;&gt;7 -->
<g id="edge3" class="edge">
<title>4&#45;&gt;7</title>
<path fill="none" stroke="black" d="M116.19,-76.81C99.41,-65.93 74.61,-49.86 55.41,-37.42"/>
<polygon fill="black" stroke="black" points="57.52,-34.61 47.23,-32.11 53.72,-40.49 57.52,-34.61"/>
</g>
<!-- 8 -->
<g id="node5" class="node">
<title>8</title>
<ellipse fill="#c53900" stroke="black" cx="99" cy="-18" rx="27" ry="18"/>
<text text-anchor="middle" x="99" y="-12.95" font-family="Times,serif" font-size="14.00">8</text>
</g>
<!-- 4&#45;&gt;8 -->
<g id="edge4" class="edge">
<title>4&#45;&gt;8</title>
<path fill="none" stroke="black" d="M126.65,-72.76C122.42,-64.55 117.19,-54.37 112.42,-45.09"/>
<polygon fill="black" stroke="black" points="115.68,-43.79 108,-36.49 109.46,-46.99 115.68,-43.79"/>
</g>
<!-- 9 -->
<g id="node6" class="node">
<title>9</title>
<ellipse fill="#ce3000" stroke="black" cx="171" cy="-18" rx="27" ry="18"/>
<text text-anchor="middle" x="171" y="-12.95" font-family="Times,serif" font-size="14.00">9</text>
</g>
<!-- 4&#45;&gt;9 -->
<g id="edge5" class="edge">
<title>4&#45;&gt;9</title>
<path fill="none" stroke="black" d="M143.35,-72.76C147.58,-64.55 152.81,-54.37 157.58,-45.09"/>
<polygon fill="black" stroke="black" points="160.54,-46.99 162,-36.49 154.32,-43.79 160.54,-46.99"/>
</g>
<!-- 5 -->
<g id="node8" class="node">
<title>5</title>
<ellipse fill="#c43a00" stroke="black" cx="279" cy="-90" rx="27" ry="18"/>
<text text-anchor="middle" x="279" y="-84.95" font-family="Times,serif" font-size="14.00">5</text>
</g>
<!-- 3&#45;&gt;5 -->
<g id="edge7" class="edge">
<title>3&#45;&gt;5</title>
<path fill="none" stroke="black" d="M279,-143.7C279,-136.41 279,-127.73 279,-119.54"/>
<polygon fill="black" stroke="black" points="282.5,-119.62 279,-109.62 275.5,-119.62 282.5,-119.62"/>
</g>
<!-- 6 -->
<g id="node12" class="node">
<title>6</title>
<ellipse fill="#ce3000" stroke="black" cx="351" cy="-90" rx="27" ry="18"/>
<text text-anchor="middle" x="351" y="-84.95" font-family="Times,serif" font-size="14.00">6</text>
</g>
<!-- 3&#45;&gt;6 -->
<g id="edge11" class="edge">
<title>3&#45;&gt;6</title>
<path fill="none" stroke="black" d="M293.92,-146.5C303.77,-136.92 316.86,-124.19 328.03,-113.34"/>
<polygon fill="black" stroke="black" points="330.29,-116.02 335.02,-106.54 325.41,-111 330.29,-116.02"/>
</g>
<!-- 10 -->
<g id="node9" class="node">
<title>10</title>
<ellipse fill="#bf3f00" stroke="black" cx="243" cy="-18" rx="27" ry="18"/>
<text text-anchor="middle" x="243" y="-12.95" font-family="Times,serif" font-size="14.00">10</text>
</g>
<!-- 5&#45;&gt;10 -->
<g id="edge8" class="edge">
<title>5&#45;&gt;10</title>
<path fill="none" stroke="black" d="M270.65,-72.76C266.42,-64.55 261.19,-54.37 256.42,-45.09"/>
<polygon fill="black" stroke="black" points="259.68,-43.79 252,-36.49 253.46,-46.99 259.68,-43.79"/>
</g>
<!-- 11 -->
<g id="node10" class="node">
<title>11</title>
<ellipse fill="#c83600" stroke="black" cx="315" cy="-18" rx="27" ry="18"/>
<text text-anchor="middle" x="315" y="-12.95" font-family="Times,serif" font-size="14.00">11</text>
</g>
<!-- 5&#45;&gt;11 -->
<g id="edge9" class="edge">
<title>5&#45;&gt;11</title>
<path fill="none" stroke="black" d="M287.35,-72.76C291.58,-64.55 296.81,-54.37 301.58,-45.09"/>
<polygon fill="black" stroke="black" points="304.54,-46.99 306,-36.49 298.32,-43.79 304.54,-46.99"/>
</g>
<!-- 12 -->
<g id="node11" class="node">
<title>12</title>
<ellipse fill="#c13d00" stroke="black" cx="387" cy="-18" rx="27" ry="18"/>
<text text-anchor="middle" x="387" y="-12.95" font-family="Times,serif" font-size="14.00">12</text>
</g>
<!-- 5&#45;&gt;12 -->
<g id="edge10" class="edge">
<title>5&#45;&gt;12</title>
<path fill="none" stroke="black" d="M297.81,-76.81C314.59,-65.93 339.39,-49.86 358.59,-37.42"/>
<polygon fill="black" stroke="black" points="360.28,-40.49 366.77,-32.11 356.48,-34.61 360.28,-40.49"/>
</g>
</g>
</svg>
