<?xml version="1.0" encoding="UTF-8" standalone="no"?>
<!DOCTYPE svg PUBLIC "-//W3C//DTD SVG 1.1//EN"
 "http://www.w3.org/Graphics/SVG/1.1/DTD/svg11.dtd">
<!-- Generated by graphviz version 12.2.1 (0)
 -->
<!-- Pages: 1 -->
<svg width="746pt" height="260pt"
 viewBox="0.00 0.00 746.00 260.00" xmlns="http://www.w3.org/2000/svg" xmlns:xlink="http://www.w3.org/1999/xlink">
<g id="graph0" class="graph" transform="scale(1 1) rotate(0) translate(4 256)">
<polygon fill="white" stroke="none" points="-4,4 -4,-256 742,-256 742,4 -4,4"/>
<!-- 1 -->
<g id="node1" class="node">
<title>1</title>
<ellipse fill="#00ff00" stroke="black" cx="495" cy="-234" rx="27" ry="18"/>
<text text-anchor="middle" x="495" y="-228.95" font-family="Times,serif" font-size="14.00">1</text>
</g>
<!-- 2 -->
<g id="node2" class="node">
<title>2</title>
<ellipse fill="#c33b00" stroke="black" cx="252" cy="-162" rx="27" ry="18"/>
<text text-anchor="middle" x="252" y="-156.95" font-family="Times,serif" font-size="14.00">2</text>
</g>
<!-- 1&#45;&gt;2 -->
<g id="edge1" class="edge">
<title>1&#45;&gt;2</title>
<path fill="none" stroke="black" d="M470.36,-225.9C427.15,-213.46 337.57,-187.65 287.61,-173.26"/>
<polygon fill="black" stroke="black" points="288.74,-169.94 278.16,-170.53 286.8,-176.67 288.74,-169.94"/>
</g>
<!-- 3 -->
<g id="node11" class="node">
<title>3</title>
<ellipse fill="#ce3000" stroke="black" cx="495" cy="-162" rx="27" ry="18"/>
<text text-anchor="middle" x="495" y="-156.95" font-family="Times,serif" font-size="14.00">3</text>
</g>
<!-- 1&#45;&gt;3 -->
<g id="edge10" class="edge">
<title>1&#45;&gt;3</title>
<path fill="none" stroke="black" d="M495,-215.7C495,-208.41 495,-199.73 495,-191.54"/>
<polygon fill="black" stroke="black" points="498.5,-191.62 495,-181.62 491.5,-191.62 498.5,-191.62"/>
</g>
<!-- 4 -->
<g id="node18" class="node">
<title>4</title>
<ellipse fill="#ce3000" stroke="black" cx="639" cy="-162" rx="27" ry="18"/>
<text text-anchor="middle" x="639" y="-156.95" font-family="Times,serif" font-size="14.00">4</text>
</g>
<!-- 1&#45;&gt;4 -->
<g id="edge17" class="edge">
<title>1&#45;&gt;4</title>
<path fill="none" stroke="black" d="M516.56,-222.52C540.66,-210.8 579.92,-191.72 607.47,-178.32"/>
<polygon fill="black" stroke="black" points="608.94,-181.5 616.4,-173.98 605.88,-175.21 608.94,-181.5"/>
</g>
<!-- 5 -->
<g id="node3" class="node">
<title>5</title>
<ellipse fill="#ce3000" stroke="black" cx="99" cy="-90" rx="27" ry="18"/>
<text text-anchor="middle" x="99" y="-84.95" font-family="Times,serif" font-size="14.00">5</text>
</g>
<!-- 2&#45;&gt;5 -->
<g id="edge2" class="edge">
<title>2&#45;&gt;5</title>
<path fill="none" stroke="black" d="M230.08,-150.97C204.17,-139.12 160.85,-119.3 131.15,-105.71"/>
<polygon fill="black" stroke="black" points="132.81,-102.62 122.26,-101.64 129.89,-108.98 132.81,-102.62"/>
</g>
<!-- 6 -->
<g id="node5" class="node">
<title>6</title>
<ellipse fill="#ce3000" stroke="black" cx="207" cy="-90" rx="27" ry="18"/>
<text text-anchor="middle" x="207" y="-84.95" font-family="Times,serif" font-size="14.00">6</text>
</g>
<!-- 2&#45;&gt;6 -->
<g id="edge4" class="edge">
<title>2&#45;&gt;6</title>
<path fill="none" stroke="black" d="M241.79,-145.12C236.32,-136.61 229.46,-125.94 223.28,-116.32"/>
<polygon fill="black" stroke="black" points="226.34,-114.61 217.99,-108.09 220.45,-118.4 226.34,-114.61"/>
</g>
<!-- 7 -->
<g id="node9" class="node">
<title>7</title>
<ellipse fill="#ce3000" stroke="black" cx="297" cy="-90" rx="27" ry="18"/>
<text text-anchor="middle" x="297" y="-84.95" font-family="Times,serif" font-size="14.00">7</text>
</g>
<!-- 2&#45;&gt;7 -->
<g id="edge8" class="edge">
<title>2&#45;&gt;7</title>
<path fill="none" stroke="black" d="M262.21,-145.12C267.68,-136.61 274.54,-125.94 280.72,-116.32"/>
<polygon fill="black" stroke="black" points="283.55,-118.4 286.01,-108.09 277.66,-114.61 283.55,-118.4"/>
</g>
<!-- 13 -->
<g id="node4" class="node">
<title>13</title>
<ellipse fill="#c73700" stroke="black" cx="27" cy="-18" rx="27" ry="18"/>
<text text-anchor="middle" x="27" y="-12.95" font-family="Times,serif" font-size="14.00">13</text>
</g>
<!-- 5&#45;&gt;13 -->
<g id="edge3" class="edge">
<title>5&#45;&gt;13</title>
<path fill="none" stroke="black" d="M84.08,-74.5C74.23,-64.92 61.14,-52.19 49.97,-41.34"/>
<polygon fill="black" stroke="black" points="52.59,-39 42.98,-34.54 47.71,-44.02 52.59,-39"/>
</g>
<!-- 14 -->
<g id="node6" class="node">
<title>14</title>
<ellipse fill="#ce3000" stroke="black" cx="99" cy="-18" rx="27" ry="18"/>
<text text-anchor="middle" x="99" y="-12.95" font-family="Times,serif" font-size="14.00">14</text>
</g>
<!-- 6&#45;&gt;14 -->
<g id="edge5" class="edge">
<title>6&#45;&gt;14</title>
<path fill="none" stroke="black" d="M188.19,-76.81C171.41,-65.93 146.61,-49.86 127.41,-37.42"/>
<polygon fill="black" stroke="black" points="129.52,-34.61 119.23,-32.11 125.72,-40.49 129.52,-34.61"/>
</g>
<!-- 15 -->
<g id="node7" class="node">
<title>15</title>
<ellipse fill="#ce3000" stroke="black" cx="171" cy="-18" rx="27" ry="18"/>
<text text-anchor="middle" x="171" y="-12.95" font-family="Times,serif" font-size="14.00">15</text>
</g>
<!-- 6&#45;&gt;15 -->
<g id="edge6" class="edge">
<title>6&#45;&gt;15</title>
<path fill="none" stroke="black" d="M198.65,-72.76C194.42,-64.55 189.19,-54.37 184.42,-45.09"/>
<polygon fill="black" stroke="black" points="187.68,-43.79 180,-36.49 181.46,-46.99 187.68,-43.79"/>
</g>
<!-- 16 -->
<g id="node8" class="node">
<title>16</title>
<ellipse fill="#cf2f00" stroke="black" cx="243" cy="-18" rx="27" ry="18"/>
<text text-anchor="middle" x="243" y="-12.95" font-family="Times,serif" font-size="14.00">16</text>
</g>
<!-- 6&#45;&gt;16 -->
<g id="edge7" class="edge">
<title>6&#45;&gt;16</title>
<path fill="none" stroke="black" d="M215.35,-72.76C219.58,-64.55 224.81,-54.37 229.58,-45.09"/>
<polygon fill="black" stroke="black" points="232.54,-46.99 234,-36.49 226.32,-43.79 232.54,-46.99"/>
</g>
<!-- 17 -->
<g id="node10" class="node">
<title>17</title>
<ellipse fill="#c93500" stroke="black" cx="315" cy="-18" rx="27" ry="18"/>
<text text-anchor="middle" x="315" y="-12.95" font-family="Times,serif" font-size="14.00">17</text>
</g>
<!-- 7&#45;&gt;17 -->
<g id="edge9" class="edge">
<title>7&#45;&gt;17</title>
<path fill="none" stroke="black" d="M301.36,-72.05C303.3,-64.49 305.65,-55.37 307.84,-46.85"/>
<polygon fill="black" stroke="black" points="311.21,-47.81 310.31,-37.25 304.43,-46.07 311.21,-47.81"/>
</g>
<!-- 8 -->
<g id="node12" class="node">
<title>8</title>
<ellipse fill="#b84600" stroke="black" cx="423" cy="-90" rx="27" ry="18"/>
<text text-anchor="middle" x="423" y="-84.95" font-family="Times,serif" font-size="14.00">8</text>
</g>
<!-- 3&#45;&gt;8 -->
<g id="edge11" class="edge">
<title>3&#45;&gt;8</title>
<path fill="none" stroke="black" d="M480.08,-146.5C470.23,-136.92 457.14,-124.19 445.97,-113.34"/>
<polygon fill="black" stroke="black" points="448.59,-111 438.98,-106.54 443.71,-116.02 448.59,-111"/>
</g>
<!-- 9 -->
<g id="node15" class="node">
<title>9</title>
<ellipse fill="#ce3000" stroke="black" cx="495" cy="-90" rx="27" ry="18"/>
<text text-anchor="middle" x="495" y="-84.95" font-family="Times,serif" font-size="14.00">9</text>
</g>
<!-- 3&#45;&gt;9 -->
<g id="edge14" class="edge">
<title>3&#45;&gt;9</title>
<path fill="none" stroke="black" d="M495,-143.7C495,-136.41 495,-127.73 495,-119.54"/>
<polygon fill="black" stroke="black" points="498.5,-119.62 495,-109.62 491.5,-119.62 498.5,-119.62"/>
</g>
<!-- 10 -->
<g id="node17" class="node">
<title>10</title>
<ellipse fill="#be4000" stroke="black" cx="567" cy="-90" rx="27" ry="18"/>
<text text-anchor="middle" x="567" y="-84.95" font-family="Times,serif" font-size="14.00">10</text>
</g>
<!-- 3&#45;&gt;10 -->
<g id="edge16" class="edge">
<title>3&#45;&gt;10</title>
<path fill="none" stroke="black" d="M509.92,-146.5C519.77,-136.92 532.86,-124.19 544.03,-113.34"/>
<polygon fill="black" stroke="black" points="546.29,-116.02 551.02,-106.54 541.41,-111 546.29,-116.02"/>
</g>
<!-- 18 -->
<g id="node13" class="node">
<title>18</title>
<ellipse fill="#ce3000" stroke="black" cx="387" cy="-18" rx="27" ry="18"/>
<text text-anchor="middle" x="387" y="-12.95" font-family="Times,serif" font-size="14.00">18</text>
</g>
<!-- 8&#45;&gt;18 -->
<g id="edge12" class="edge">
<title>8&#45;&gt;18</title>
<path fill="none" stroke="black" d="M414.65,-72.76C410.42,-64.55 405.19,-54.37 400.42,-45.09"/>
<polygon fill="black" stroke="black" points="403.68,-43.79 396,-36.49 397.46,-46.99 403.68,-43.79"/>
</g>
<!-- 19 -->
<g id="node14" class="node">
<title>19</title>
<ellipse fill="#ce3000" stroke="black" cx="459" cy="-18" rx="27" ry="18"/>
<text text-anchor="middle" x="459" y="-12.95" font-family="Times,serif" font-size="14.00">19</text>
</g>
<!-- 8&#45;&gt;19 -->
<g id="edge13" class="edge">
<title>8&#45;&gt;19</title>
<path fill="none" stroke="black" d="M431.35,-72.76C435.58,-64.55 440.81,-54.37 445.58,-45.09"/>
<polygon fill="black" stroke="black" points="448.54,-46.99 450,-36.49 442.32,-43.79 448.54,-46.99"/>
</g>
<!-- 20 -->
<g id="node16" class="node">
<title>20</title>
<ellipse fill="#cc3200" stroke="black" cx="531" cy="-18" rx="27" ry="18"/>
<text text-anchor="middle" x="531" y="-12.95" font-family="Times,serif" font-size="14.00">20</text>
</g>
<!-- 9&#45;&gt;20 -->
<g id="edge15" class="edge">
<title>9&#45;&gt;20</title>
<path fill="none" stroke="black" d="M503.35,-72.76C507.58,-64.55 512.81,-54.37 517.58,-45.09"/>
<polygon fill="black" stroke="black" points="520.54,-46.99 522,-36.49 514.32,-43.79 520.54,-46.99"/>
</g>
<!-- 11 -->
<g id="node19" class="node">
<title>11</title>
<ellipse fill="#cf2f00" stroke="black" cx="639" cy="-90" rx="27" ry="18"/>
<text text-anchor="middle" x="639" y="-84.95" font-family="Times,serif" font-size="14.00">11</text>
</g>
<!-- 4&#45;&gt;11 -->
<g id="edge18" class="edge">
<title>4&#45;&gt;11</title>
<path fill="none" stroke="black" d="M639,-143.7C639,-136.41 639,-127.73 639,-119.54"/>
<polygon fill="black" stroke="black" points="642.5,-119.62 639,-109.62 635.5,-119.62 642.5,-119.62"/>
</g>
<!-- 12 -->
<g id="node20" class="node">
<title>12</title>
<ellipse fill="#c13d00" stroke="black" cx="711" cy="-90" rx="27" ry="18"/>
<text text-anchor="middle" x="711" y="-84.95" font-family="Times,serif" font-size="14.00">12</text>
</g>
<!-- 4&#45;&gt;12 -->
<g id="edge19" class="edge">
<title>4&#45;&gt;12</title>
<path fill="none" stroke="black" d="M653.92,-146.5C663.77,-136.92 676.86,-124.19 688.03,-113.34"/>
<polygon fill="black" stroke="black" points="690.29,-116.02 695.02,-106.54 685.41,-111 690.29,-116.02"/>
</g>
</g>
</svg>
